<svg width="36" height="36" viewBox="0 0 36 36" fill="none" xmlns="http://www.w3.org/2000/svg">
<path d="M24 25.125H12C11.385 25.125 10.875 24.615 10.875 24V12C10.875 11.385 11.385 10.875 12 10.875H24C24.615 10.875 25.125 11.385 25.125 12V24C25.125 24.615 24.615 25.125 24 25.125ZM13.125 22.875H22.875V13.125H13.125V22.875Z" fill="#EA00F5"/>
<path d="M7.5 34.125C4.395 34.125 1.875 31.605 1.875 28.5C1.875 25.395 4.395 22.875 7.5 22.875H12C12.615 22.875 13.125 23.385 13.125 24V28.5C13.125 31.605 10.605 34.125 7.5 34.125ZM7.5 25.125C5.64 25.125 4.125 26.64 4.125 28.5C4.125 30.36 5.64 31.875 7.5 31.875C9.36 31.875 10.875 30.36 10.875 28.5V25.125H7.5Z" fill="#EA00F5"/>
<path d="M12 13.125H7.5C4.395 13.125 1.875 10.605 1.875 7.5C1.875 4.395 4.395 1.875 7.5 1.875C10.605 1.875 13.125 4.395 13.125 7.5V12C13.125 12.615 12.615 13.125 12 13.125ZM7.5 4.125C5.64 4.125 4.125 5.64 4.125 7.5C4.125 9.36 5.64 10.875 7.5 10.875H10.875V7.5C10.875 5.64 9.36 4.125 7.5 4.125Z" fill="#EA00F5"/>
<path d="M28.5 13.125H24C23.385 13.125 22.875 12.615 22.875 12V7.5C22.875 4.395 25.395 1.875 28.5 1.875C31.605 1.875 34.125 4.395 34.125 7.5C34.125 10.605 31.605 13.125 28.5 13.125ZM25.125 10.875H28.5C30.36 10.875 31.875 9.36 31.875 7.5C31.875 5.64 30.36 4.125 28.5 4.125C26.64 4.125 25.125 5.64 25.125 7.5V10.875Z" fill="#EA00F5"/>
<path d="M28.5 34.125C25.395 34.125 22.875 31.605 22.875 28.5V24C22.875 23.385 23.385 22.875 24 22.875H28.5C31.605 22.875 34.125 25.395 34.125 28.5C34.125 31.605 31.605 34.125 28.5 34.125ZM25.125 25.125V28.5C25.125 30.36 26.64 31.875 28.5 31.875C30.36 31.875 31.875 30.36 31.875 28.5C31.875 26.64 30.36 25.125 28.5 25.125H25.125Z" fill="#EA00F5"/>
</svg>
