<svg width="36" height="36" viewBox="0 0 36 36" fill="none" xmlns="http://www.w3.org/2000/svg">
<path d="M11.6429 7.94108C11.0581 7.94108 10.5841 7.46704 10.5841 6.88225C10.5841 6.29746 11.0581 5.82341 11.6429 5.82341H31.7688C34.107 5.82341 36 7.7196 36 10.0621V29.1141C36 31.4537 34.104 33.3529 31.7688 33.3529H7.40763C5.06939 33.3529 3.17644 31.4567 3.17644 29.1141V14.2974C3.17644 13.7126 3.65048 13.2386 4.23527 13.2386C4.82006 13.2386 5.29411 13.7126 5.29411 14.2974V29.1141C5.29411 30.2879 6.23974 31.2352 7.40763 31.2352H31.7688C32.9336 31.2352 33.8823 30.2848 33.8823 29.1141V10.0621C33.8823 8.8884 32.9367 7.94108 31.7688 7.94108H11.6429ZM18.1875 23.5723L23.0477 18.3383C23.4666 17.8871 24.1805 17.8871 24.5995 18.3383L31.4818 25.75C31.8797 26.1786 31.8549 26.8485 31.4264 27.2464C30.9979 27.6443 30.3279 27.6196 29.93 27.191L23.8236 20.6148L17.7171 27.191C17.3192 27.6196 16.6493 27.6443 16.2207 27.2464C15.7923 26.8485 15.7674 26.1786 16.1653 25.75L16.7459 25.1248C16.7378 25.1172 16.7298 25.1095 16.7219 25.1016L13.8012 22.1809L9.25404 27.1827C8.86071 27.6154 8.19106 27.6474 7.75835 27.254C7.32565 26.8606 7.2938 26.191 7.68713 25.7583L12.9812 19.9347C13.3879 19.4874 14.0859 19.4708 14.5134 19.8983L18.1875 23.5723ZM3.17644 5.82348V3.70581C3.17644 3.12102 3.65048 2.64697 4.23527 2.64697C4.82006 2.64697 5.29411 3.12102 5.29411 3.70581V5.82348H7.41178C7.99657 5.82348 8.47062 6.29753 8.47062 6.88232C8.47062 7.46711 7.99657 7.94115 7.41178 7.94115H5.29411V10.0588C5.29411 10.6436 4.82006 11.1177 4.23527 11.1177C3.65048 11.1177 3.17644 10.6436 3.17644 10.0588V7.94115H1.05884C0.474047 7.94108 0 7.46704 0 6.88225C0 6.29746 0.474047 5.82341 1.05884 5.82341L3.17644 5.82348ZM13.7647 17.4705C12.0104 17.4705 10.5883 16.0484 10.5883 14.2941C10.5883 12.5398 12.0104 11.1177 13.7647 11.1177C15.519 11.1177 16.9412 12.5398 16.9412 14.2941C16.9412 16.0484 15.519 17.4705 13.7647 17.4705ZM13.7647 15.3529C14.3495 15.3529 14.8236 14.8788 14.8236 14.294C14.8236 13.7092 14.3495 13.2352 13.7647 13.2352C13.1799 13.2352 12.7059 13.7092 12.7059 14.294C12.7059 14.8788 13.1799 15.3529 13.7647 15.3529Z" fill="#EA00F5"/>
</svg>
