<svg width="36" height="36" viewBox="0 0 36 36" fill="none" xmlns="http://www.w3.org/2000/svg">
<path d="M13.05 11.5501L16.5 8.1001V22.5001C16.5 23.4001 17.1 24.0001 18 24.0001C18.9 24.0001 19.5 23.4001 19.5 22.5001V8.1001L22.95 11.5501C23.55 12.1501 24.45 12.1501 25.05 11.5501C25.65 10.9501 25.65 10.0501 25.05 9.4501L19.05 3.4501C18.9 3.3001 18.75 3.1501 18.6 3.1501C18.3 3.0001 17.85 3.0001 17.4 3.1501C17.25 3.1501 17.1 3.3001 16.95 3.4501L10.95 9.4501C10.35 10.0501 10.35 10.9501 10.95 11.5501C11.55 12.1501 12.45 12.1501 13.05 11.5501ZM31.5 21.0001C30.6 21.0001 30 21.6001 30 22.5001V28.5001C30 29.4001 29.4 30.0001 28.5 30.0001H7.5C6.6 30.0001 6 29.4001 6 28.5001V22.5001C6 21.6001 5.4 21.0001 4.5 21.0001C3.6 21.0001 3 21.6001 3 22.5001V28.5001C3 31.0501 4.95 33.0001 7.5 33.0001H28.5C31.05 33.0001 33 31.0501 33 28.5001V22.5001C33 21.6001 32.4 21.0001 31.5 21.0001Z" fill="#EA00F5"/>
</svg>
