<svg width="142" height="34" viewBox="0 0 142 34" fill="none" xmlns="http://www.w3.org/2000/svg">
<path d="M21.833 6.192H13.769V27H8.765V6.192H0.701V1.476H21.833V6.192ZM32.8695 9.288H37.9095L41.7255 20.7L45.0015 9.288H49.7535L44.2095 27H39.4215L35.2815 14.904L31.2135 27H26.3535L20.7015 9.288H25.7415L29.0175 20.664L32.8695 9.288ZM57.5315 27H52.7435V9.288H57.5315V27ZM52.1675 3.492C52.1675 2.676 52.4555 1.98 53.0315 1.404C53.6075 0.803998 54.3035 0.503998 55.1195 0.503998C55.9355 0.503998 56.6315 0.791998 57.2075 1.368C57.7835 1.944 58.0715 2.652 58.0715 3.492C58.0715 4.284 57.7835 4.968 57.2075 5.544C56.6315 6.12 55.9355 6.408 55.1195 6.408C54.3035 6.408 53.6075 6.12 53.0315 5.544C52.4555 4.968 52.1675 4.284 52.1675 3.492ZM68.5616 3.996V9.288H72.1256V13.536H68.5616V20.952C68.5616 21.696 68.7296 22.224 69.0656 22.536C69.4016 22.848 69.9296 23.004 70.6496 23.004C71.2976 23.004 71.7896 22.956 72.1256 22.86V26.82C71.4296 27.108 70.5296 27.252 69.4256 27.252C67.6976 27.252 66.3296 26.772 65.3216 25.812C64.3136 24.828 63.8096 23.484 63.8096 21.78V13.536H60.6056V9.288H61.5056C62.3936 9.288 63.0656 9.036 63.5216 8.532C64.0016 8.004 64.2416 7.32 64.2416 6.48V3.996H68.5616ZM81.9913 3.996V9.288H85.5553V13.536H81.9913V20.952C81.9913 21.696 82.1593 22.224 82.4953 22.536C82.8313 22.848 83.3593 23.004 84.0793 23.004C84.7273 23.004 85.2193 22.956 85.5553 22.86V26.82C84.8593 27.108 83.9593 27.252 82.8553 27.252C81.1273 27.252 79.7593 26.772 78.7513 25.812C77.7433 24.828 77.2393 23.484 77.2393 21.78V13.536H74.0353V9.288H74.9353C75.8233 9.288 76.4953 9.036 76.9513 8.532C77.4313 8.004 77.6713 7.32 77.6713 6.48V3.996H81.9913ZM92.9386 16.128H100.859C100.811 15.144 100.451 14.316 99.7786 13.644C99.1306 12.972 98.1706 12.636 96.8986 12.636C95.7466 12.636 94.8106 12.996 94.0906 13.716C93.3706 14.436 92.9866 15.24 92.9386 16.128ZM101.327 20.736L105.323 21.924C104.843 23.556 103.895 24.9 102.479 25.956C101.087 27.012 99.3466 27.54 97.2586 27.54C94.7146 27.54 92.5546 26.688 90.7786 24.984C89.0026 23.256 88.1146 20.952 88.1146 18.072C88.1146 15.336 88.9786 13.104 90.7066 11.376C92.4346 9.624 94.4746 8.748 96.8266 8.748C99.5626 8.748 101.699 9.564 103.235 11.196C104.795 12.828 105.575 15.072 105.575 17.928C105.575 18.12 105.563 18.336 105.539 18.576C105.539 18.816 105.539 19.008 105.539 19.152L105.503 19.404H92.8306C92.8786 20.556 93.3346 21.516 94.1986 22.284C95.0626 23.052 96.0946 23.436 97.2946 23.436C99.3346 23.436 100.679 22.536 101.327 20.736ZM120.145 9.216V14.04C119.665 13.944 119.185 13.896 118.705 13.896C117.337 13.896 116.233 14.292 115.393 15.084C114.553 15.852 114.133 17.124 114.133 18.9V27H109.345V9.288H113.989V11.916C114.853 10.068 116.533 9.144 119.029 9.144C119.293 9.144 119.665 9.168 120.145 9.216ZM130.406 33.984H125.33L129.506 24.768L121.982 9.288H127.346L132.062 19.656L136.418 9.288H141.53L130.406 33.984Z" fill="url(#paint0_linear_3_145)"/>
<defs>
<linearGradient id="paint0_linear_3_145" x1="-19" y1="5.5" x2="82" y2="27" gradientUnits="userSpaceOnUse">
<stop stop-color="#243FE2"/>
<stop offset="1" stop-color="#E224DB"/>
</linearGradient>
</defs>
</svg>
