<svg width="82" height="98" viewBox="0 0 82 98" fill="none" xmlns="http://www.w3.org/2000/svg">
<path d="M43.0967 69.4814C43.3301 71.4035 42.8153 73.1574 41.6077 74.5537C40.1792 76.2055 37.7989 77.3105 35.0917 77.615V79.6881C35.0917 80.551 34.392 81.2506 33.5292 81.2506C32.6663 81.2506 31.9667 80.551 31.9667 79.6881V77.5926C27.9643 77.0545 24.8514 74.5312 23.9522 70.9248C23.7434 70.0875 24.253 69.2395 25.0903 69.0307C25.9282 68.8231 26.7756 69.3316 26.9844 70.1687C27.7885 73.3938 30.9395 74.548 33.521 74.574C33.5346 74.5738 33.5485 74.5742 33.5622 74.5744C33.6489 74.574 33.7348 74.574 33.82 74.5719C36.078 74.5182 38.2071 73.7086 39.244 72.5094C39.8768 71.7777 40.1223 70.9104 39.9946 69.858C39.693 67.3744 37.628 65.9498 33.2989 65.2393C26.4672 64.1176 24.8768 60.658 24.7458 57.9533C24.5637 54.2051 27.1891 51.0635 31.2788 50.1359C31.504 50.0848 31.7338 50.0412 31.9667 50.0053V47.8875C31.9667 47.0246 32.6663 46.325 33.5292 46.325C34.392 46.325 35.0917 47.0246 35.0917 47.8875V49.9918C38.0243 50.4164 40.9223 52.1082 42.3672 55.55C42.7012 56.3455 42.3272 57.2615 41.5315 57.5955C40.7358 57.9297 39.82 57.5555 39.486 56.7598C38.3635 54.0867 35.962 53.0016 33.6446 52.9977C33.5805 53.0025 33.5145 53.0029 33.4499 53C32.9459 53.0121 32.4481 53.0752 31.97 53.1836C29.9008 53.6527 27.7364 55.1125 27.867 57.802C27.9079 58.6443 28.0323 61.2078 33.8051 62.1557C35.9254 62.5037 42.3782 63.5629 43.0967 69.4814ZM80.8032 79.2941L66.1846 96.5115C65.6778 97.1086 64.9674 97.4373 64.1842 97.4373C63.4012 97.4373 62.6907 97.1084 62.1838 96.5117L56.3348 89.6229C50.3085 94.6842 42.5407 97.4375 34.2278 97.4375C34.0245 97.4375 33.8215 97.4357 33.6176 97.4326C33.4188 97.4359 33.2182 97.4373 33.0198 97.4373C20.9721 97.4379 10.0305 91.5498 4.35357 81.9705C-0.797801 73.2781 -0.685107 62.9072 4.66255 53.5176C8.00982 47.6404 13.1362 40.9857 20.6989 32.7125C18.5508 31.7355 17.0528 29.5707 17.0528 27.0611C17.0528 23.6889 19.7571 20.9381 23.1108 20.8588L18.1711 15.9193C15.7012 13.4494 15.7012 9.43066 18.1711 6.96094C20.2616 4.87031 23.5858 4.51328 26.0756 6.11133C26.343 6.28281 26.6047 6.30625 26.8985 6.18477C27.1917 6.06328 27.3602 5.86191 27.428 5.55117C28.0588 2.66094 30.6618 0.562891 33.6174 0.5625C36.5731 0.5625 39.1764 2.66035 39.8077 5.55078C39.8754 5.86172 40.0438 6.06328 40.3376 6.18496C40.6307 6.30645 40.8922 6.28281 41.1598 6.11133C43.6495 4.51348 46.9735 4.87031 49.0641 6.96074C51.534 9.43086 51.534 13.4498 49.0643 15.9195L44.1249 20.859C47.4784 20.9385 50.1827 23.6893 50.1827 27.0615C50.1827 29.5709 48.6846 31.7357 46.5366 32.7127C49.7227 36.1986 52.4674 39.3891 54.8295 42.3527C55.0049 40.482 56.5827 39.0127 58.4981 39.0127H69.8706C71.9032 39.0129 73.5569 40.6666 73.5567 42.699V74.9721H78.8028C79.8376 74.9721 80.7503 75.5555 81.1844 76.4945C81.6186 77.4324 81.4727 78.5055 80.8032 79.2941ZM20.3807 13.7096L27.5264 20.8549H39.7094L46.8547 13.7096C48.1061 12.458 48.1061 10.4219 46.8547 9.17051C45.7956 8.11133 44.1104 7.93066 42.8479 8.74102C41.7247 9.46172 40.3737 9.58242 39.1415 9.07168C37.909 8.56113 37.0391 7.5207 36.7545 6.21719C36.4344 4.75156 35.1151 3.6875 33.6176 3.6875C32.1202 3.6877 30.801 4.75176 30.4811 6.21738C30.1965 7.5209 29.3266 8.56133 28.094 9.07188C26.8612 9.58203 25.5104 9.46152 24.3877 8.74121C23.1251 7.93066 21.4399 8.11133 20.3805 9.17051C19.1292 10.4219 19.1292 12.4582 20.3807 13.7096ZM20.1778 27.0611C20.1778 28.7602 21.56 30.1424 23.259 30.1424H43.9762C45.6752 30.1424 47.0575 28.7602 47.0575 27.0613C47.0575 25.3623 45.6752 23.9801 43.9762 23.9801H23.259C21.56 23.9799 20.1778 25.3621 20.1778 27.0611ZM54.3126 87.241L47.5655 79.2943C46.8958 78.5051 46.7501 77.432 47.1844 76.4934C47.6186 75.5549 48.5311 74.9715 49.5659 74.9715H54.812V47.448C51.7092 43.2736 47.7702 38.6244 42.7979 33.2676H24.4366C16.2422 42.0955 10.8127 49.0334 7.37778 55.0643C2.53091 63.5746 2.41157 72.5645 7.04165 80.3775C12.2454 89.1584 22.4211 94.4947 33.5911 94.3078C33.6086 94.3074 33.6262 94.3074 33.6438 94.3078C41.434 94.4412 48.7118 91.9393 54.3126 87.241ZM63.8036 94.4877C63.8032 94.4883 63.8028 94.4887 63.8024 94.4891L63.8036 94.4877ZM77.7208 78.0967H71.9942C71.1313 78.0967 70.4317 77.3971 70.4317 76.5342V42.6984C70.4317 42.3941 70.1749 42.1373 69.8706 42.1373H58.4981C58.194 42.1373 57.937 42.3943 57.937 42.6986V76.534C57.937 77.3969 57.2374 78.0965 56.3745 78.0965H50.6479L64.1844 94.0395L77.7208 78.0967Z" fill="#E224DB"/>
</svg>
