<svg width="78" height="74" viewBox="0 0 78 74" fill="none" xmlns="http://www.w3.org/2000/svg">
<path fill-rule="evenodd" clip-rule="evenodd" d="M62.5247 71.0488H67.2638C67.9564 71.0488 68.5187 71.611 68.5187 72.3037C68.5187 72.9962 67.9564 73.5586 67.2638 73.5586H2.20235C1.50933 73.5586 0.947449 72.9967 0.947449 72.3037V13.3957C0.947449 12.7032 1.5098 12.1408 2.20235 12.1408C2.8949 12.1408 3.45725 12.7032 3.45725 13.3957V71.0488H6.94149V32.5255C6.94149 31.8323 7.50337 31.2706 8.19639 31.2706H16.2723C16.9653 31.2706 17.5272 31.8323 17.5272 32.5255V71.0488H21.9424V48.6524C21.9424 47.9593 22.5043 47.3975 23.1973 47.3975H31.2731C31.9663 47.3975 32.528 47.9593 32.528 48.6524V71.0488H36.9382V43.1382C36.9382 42.4452 37.4999 41.8833 38.1931 41.8833H46.2689C46.9619 41.8833 47.5238 42.4452 47.5238 43.1382V71.0488H51.9338V56.787C51.9338 56.0939 52.4957 55.5321 53.1887 55.5321H61.2698C61.9628 55.5321 62.5247 56.0939 62.5247 56.787V71.0488ZM9.45129 71.0488H15.0174V33.7804H9.45129V71.0488ZM24.4522 71.0488H30.0182V49.9073H24.4522V71.0488ZM39.448 71.0488H45.014V44.3931H39.448V71.0488ZM54.4436 71.0488H60.0149C60.0149 67.5672 60.0149 58.0419 60.0149 58.0419H54.4436V71.0488ZM55.3722 43.3088L42.0391 31.6786L27.7884 38.7165C27.2969 38.9592 26.7048 38.8549 26.3258 38.4588L11.3302 22.7843C10.8514 22.2839 10.869 21.4889 11.3694 21.01C11.87 20.5313 12.6649 20.5488 13.1437 21.0494L27.5027 36.0583L41.6778 29.0577C42.1321 28.8334 42.6767 28.9043 43.0585 29.2373L57.3184 41.6761V41.0078C57.3184 40.3153 57.8808 39.7529 58.5733 39.7529C59.2659 39.7529 59.8282 40.3153 59.8282 41.0078V44.5637C59.8282 45.2568 59.2663 45.8186 58.5733 45.8186H55.0174C54.3249 45.8186 53.7625 45.2563 53.7625 44.5637C53.7625 43.8712 54.3249 43.3088 55.0174 43.3088H55.3722ZM39.7774 18.2117C39.1043 17.5485 38.7774 16.7167 38.8221 15.776L39.2442 6.47605L39.2444 6.47449C39.3153 4.95731 39.6576 3.62633 40.7253 2.54413C41.7904 1.46257 43.1158 1.10115 44.6317 1.00782H44.6332L53.9256 0.44782L53.9274 0.447663C54.8715 0.39229 55.7027 0.704918 56.3749 1.36719L76.0969 20.8023C77.3587 22.0437 77.3719 24.0916 76.1308 25.3485L64.046 37.6144L64.0439 37.6166C62.7995 38.8734 60.7587 38.8884 59.4987 37.6486L59.4979 37.6478L39.7774 18.2117ZM41.5391 16.424L61.2588 35.8596C61.5365 36.1325 61.9856 36.1277 62.2598 35.8513L74.3429 23.5871L74.3438 23.5862C74.6157 23.3109 74.6129 22.8629 74.3368 22.5913L74.336 22.5906L54.6133 3.1548C54.4656 3.00923 54.2825 2.941 54.075 2.95323L44.7853 3.51292C43.9162 3.56641 43.1238 3.68531 42.5132 4.30539L42.5122 4.30649C41.8999 4.92688 41.7921 5.72139 41.7515 6.59104L41.3294 15.8897L41.3293 15.8924C41.3194 16.0982 41.3922 16.2793 41.5391 16.424ZM47.9269 7.83292C47.9329 8.83966 47.1225 9.66006 46.1162 9.66837C45.1095 9.67449 44.2896 8.86649 44.2811 7.86021C44.2751 6.85347 45.0827 6.03104 46.0891 6.02272C47.0957 6.0166 47.9184 6.82664 47.9269 7.83292ZM60.8703 13.2042L61.2036 12.8709C61.6933 12.3812 62.4885 12.3812 62.9783 12.8709C63.4681 13.3606 63.4681 14.1557 62.9783 14.6456L62.6543 14.9695C63.3584 16.1314 63.5983 17.599 62.982 19.109C62.7203 19.7503 61.9873 20.0585 61.346 19.7968C60.7048 19.5352 60.3965 18.802 60.6582 18.1608C61.1854 16.8688 60.3421 15.6692 59.3222 15.2255C58.7612 14.9815 58.1115 14.9681 57.6616 15.4635C57.3173 15.8434 57.3586 16.2863 57.5013 16.7021C57.6546 17.1487 57.9208 17.5771 58.1934 17.9572C59.4012 19.6375 60.3012 21.8839 58.7939 23.8103L58.7928 23.8117C57.3402 25.6632 55.0662 25.3496 53.384 24.24L53.0758 24.5481C52.586 25.0378 51.7909 25.0378 51.301 24.5481C50.8113 24.0583 50.8113 23.263 51.301 22.7733L51.6223 22.4522C50.718 21.0142 50.5076 19.2265 51.4508 17.6579C51.8078 17.0643 52.5794 16.8721 53.173 17.229C53.7666 17.586 53.9586 18.3576 53.6017 18.9512C53.0242 19.9115 53.4955 21.013 54.2645 21.7465C54.6869 22.1495 55.2469 22.5098 55.8187 22.615C56.179 22.6812 56.5454 22.6099 56.8177 22.263C57.1862 21.7915 57.1175 21.2729 56.9357 20.7892C56.7521 20.301 56.4538 19.8368 56.1554 19.4221L56.1548 19.421C54.9707 17.7702 54.1998 15.5448 55.8027 13.7772L55.8031 13.7768C57.0369 12.4179 58.7853 12.2549 60.3234 12.9241C60.5101 13.0053 60.6929 13.099 60.8703 13.2042Z" fill="#E224DB"/>
</svg>
